<?xml version="1.0" encoding="UTF-8"?>
<svg xmlns="http://www.w3.org/2000/svg" viewBox="170 360 950 530" version="1.1">
  <path d="M 340 556 L 339 557 L 339 667 L 340 668 L 352 668 L 353 667 L 353 619 L 354 618 L 381 618 L 382 619 L 384 619 L 391 626 L 393 631 L 397 636 L 399 641 L 401 643 L 402 646 L 404 648 L 405 651 L 409 656 L 410 659 L 412 661 L 415 667 L 416 668 L 431 668 L 429 664 L 427 662 L 425 657 L 423 655 L 420 649 L 418 647 L 417 644 L 415 642 L 414 639 L 412 637 L 411 634 L 409 632 L 408 629 L 406 627 L 406 626 L 400 620 L 396 618 L 399 616 L 402 616 L 403 615 L 405 615 L 406 614 L 408 614 L 412 612 L 414 610 L 415 610 L 423 602 L 425 598 L 426 593 L 427 592 L 427 582 L 426 581 L 426 578 L 423 572 L 421 570 L 421 569 L 414 563 L 406 559 L 404 559 L 403 558 L 400 558 L 399 557 L 393 557 L 392 556 Z
    M 807 555 L 798 572 L 798 574 L 785 599 L 785 601 L 770 631 L 746 654 L 745 654 L 737 662 L 736 662 L 721 676 L 720 676 L 716 680 L 715 680 L 709 686 L 708 686 L 698 695 L 697 695 L 683 707 L 682 707 L 679 710 L 678 710 L 674 714 L 673 714 L 670 717 L 669 717 L 665 721 L 664 721 L 657 727 L 653 729 L 650 732 L 649 732 L 646 735 L 645 735 L 642 738 L 641 738 L 639 740 L 639 741 L 652 741 L 655 738 L 656 738 L 659 735 L 660 735 L 671 726 L 675 724 L 679 720 L 680 720 L 683 717 L 684 717 L 688 713 L 689 713 L 693 709 L 694 709 L 697 706 L 698 706 L 708 697 L 709 697 L 713 693 L 714 693 L 726 682 L 727 682 L 734 675 L 735 675 L 741 669 L 742 669 L 757 655 L 758 657 L 753 666 L 753 668 L 756 668 L 759 662 L 759 660 L 765 648 L 778 635 L 799 635 L 800 634 L 802 635 L 834 635 L 850 667 L 851 668 L 864 668 L 864 666 L 848 634 L 846 632 L 831 601 L 829 599 L 821 583 L 821 581 L 819 577 L 817 575 Z
    M 240 555 L 234 567 L 234 569 L 225 586 L 225 588 L 209 619 L 209 621 L 199 640 L 199 642 L 188 663 L 188 665 L 186 667 L 187 668 L 189 668 L 190 667 L 193 661 L 193 659 L 203 640 L 203 638 L 206 634 L 207 635 L 267 635 L 269 637 L 284 668 L 298 668 L 298 666 L 281 632 L 279 630 L 267 605 L 265 603 L 241 555 Z
    M 279 827 L 280 828 L 280 833 L 281 834 L 283 842 L 287 849 L 295 858 L 308 866 L 310 866 L 316 869 L 323 870 L 324 871 L 329 871 L 330 872 L 341 872 L 342 873 L 355 873 L 356 872 L 368 872 L 369 871 L 383 870 L 384 869 L 398 867 L 399 866 L 414 863 L 421 860 L 424 860 L 425 859 L 451 851 L 454 849 L 456 849 L 459 847 L 464 846 L 474 841 L 481 839 L 488 835 L 490 835 L 495 832 L 497 832 L 516 822 L 518 822 L 524 818 L 547 807 L 549 805 L 565 797 L 567 795 L 595 779 L 578 779 L 576 781 L 573 782 L 561 790 L 556 792 L 554 794 L 496 824 L 494 824 L 485 829 L 483 829 L 464 838 L 459 839 L 456 841 L 446 844 L 443 846 L 441 846 L 419 854 L 409 856 L 405 858 L 397 859 L 396 860 L 388 861 L 387 862 L 383 862 L 382 863 L 370 864 L 369 865 L 361 865 L 360 866 L 335 866 L 334 865 L 327 865 L 326 864 L 319 863 L 310 859 L 308 859 L 306 857 L 300 854 L 293 847 L 289 841 L 286 834 L 285 825 L 284 824 L 284 811 L 285 810 L 285 803 L 286 802 L 287 794 L 288 793 L 292 779 L 295 774 L 295 772 L 312 740 L 333 710 L 351 689 L 351 688 L 368 670 L 369 668 L 368 668 L 343 694 L 343 695 L 329 711 L 317 727 L 300 754 L 296 763 L 292 769 L 292 771 L 289 776 L 289 778 L 287 781 L 287 783 L 282 796 L 281 804 L 280 805 L 280 811 L 279 812 Z
    M 353 560 L 354 559 L 391 559 L 392 560 L 394 560 L 395 561 L 397 561 L 401 563 L 408 570 L 409 573 L 411 575 L 411 577 L 412 578 L 412 581 L 413 582 L 413 592 L 412 593 L 412 596 L 410 599 L 410 601 L 408 603 L 408 604 L 402 610 L 401 610 L 399 612 L 395 614 L 392 614 L 391 615 L 354 615 L 353 614 Z
    M 629 517 L 628 517 L 628 518 L 603 543 L 603 544 L 590 557 L 590 558 L 571 578 L 571 579 L 591 579 L 592 580 L 591 581 L 591 584 L 590 585 L 590 589 L 589 590 L 589 593 L 588 594 L 588 597 L 587 598 L 587 601 L 586 602 L 586 606 L 585 607 L 585 610 L 584 611 L 584 614 L 583 615 L 583 618 L 582 619 L 582 623 L 581 624 L 581 627 L 580 628 L 580 631 L 579 632 L 579 635 L 578 636 L 578 640 L 576 644 L 576 647 L 575 648 L 575 651 L 574 652 L 574 656 L 573 657 L 573 660 L 572 661 L 572 664 L 571 665 L 571 668 L 570 669 L 570 672 L 569 673 L 569 676 L 568 677 L 568 680 L 567 681 L 567 684 L 566 685 L 566 689 L 565 690 L 565 693 L 564 694 L 564 698 L 565 697 L 566 692 L 568 689 L 568 687 L 570 684 L 570 682 L 572 679 L 572 677 L 574 674 L 574 672 L 576 669 L 576 667 L 579 662 L 579 660 L 581 657 L 581 655 L 585 647 L 585 645 L 588 640 L 588 638 L 591 633 L 591 631 L 597 619 L 597 617 L 599 614 L 599 612 L 601 609 L 601 607 L 604 602 L 604 600 L 607 595 L 607 593 L 609 590 L 609 588 L 614 578 L 614 575 L 615 574 L 615 571 L 616 570 L 616 567 L 617 566 L 617 563 L 618 562 L 618 559 L 619 558 L 620 551 L 622 547 L 622 544 L 623 543 L 623 540 L 624 539 L 624 536 L 625 535 L 625 532 L 626 531 L 626 528 L 627 527 L 627 523 L 628 522 L 628 519 Z
    M 916 408 L 915 407 L 915 404 L 913 401 L 913 399 L 908 391 L 902 385 L 890 378 L 888 378 L 884 376 L 881 376 L 880 375 L 876 375 L 875 374 L 865 374 L 864 373 L 844 374 L 843 375 L 837 375 L 836 376 L 826 377 L 825 378 L 814 380 L 810 382 L 807 382 L 806 383 L 783 390 L 778 393 L 773 394 L 763 399 L 761 399 L 754 403 L 752 403 L 716 421 L 714 423 L 705 427 L 698 432 L 686 438 L 681 442 L 678 443 L 673 447 L 662 453 L 634 472 L 640 469 L 645 465 L 648 464 L 656 458 L 659 457 L 677 445 L 682 443 L 684 441 L 694 436 L 696 434 L 703 431 L 705 429 L 714 425 L 716 423 L 762 401 L 767 400 L 770 398 L 772 398 L 780 394 L 788 392 L 791 390 L 797 389 L 807 385 L 810 385 L 811 384 L 814 384 L 819 382 L 823 382 L 824 381 L 828 381 L 829 380 L 833 380 L 834 379 L 841 379 L 842 378 L 870 378 L 871 379 L 879 380 L 889 384 L 895 388 L 901 394 L 906 403 L 907 409 L 908 410 L 909 423 L 908 424 L 907 438 L 904 446 L 904 449 L 902 452 L 900 460 L 894 472 L 894 474 L 892 476 L 891 480 L 889 482 L 885 491 L 883 493 L 881 498 L 877 503 L 873 511 L 852 541 L 828 570 L 831 577 L 833 578 L 833 577 L 839 571 L 843 565 L 849 559 L 849 558 L 870 531 L 878 519 L 879 516 L 882 513 L 886 505 L 888 503 L 890 498 L 892 496 L 903 475 L 903 473 L 906 468 L 906 466 L 910 458 L 910 456 L 912 452 L 912 449 L 914 445 L 914 442 L 915 441 L 915 437 L 916 436 L 916 428 L 917 427 L 917 415 L 916 414 Z
    M 746 556 L 666 556 L 666 562 L 665 563 L 665 667 L 666 668 L 679 668 L 679 615 L 680 614 L 729 614 L 729 611 L 680 611 L 679 610 L 679 560 L 680 559 L 746 559 Z
    M 235 574 L 238 577 L 262 625 L 264 627 L 266 631 L 265 632 L 208 632 L 207 631 L 217 611 L 217 609 L 232 580 L 232 578 Z
    M 926 558 L 921 561 L 919 561 L 917 563 L 914 564 L 912 566 L 908 568 L 897 579 L 897 580 L 893 585 L 890 591 L 890 593 L 888 596 L 888 599 L 887 600 L 887 604 L 886 605 L 886 620 L 887 621 L 887 625 L 888 626 L 888 628 L 889 629 L 890 634 L 893 640 L 897 645 L 897 646 L 907 656 L 908 656 L 911 659 L 914 660 L 916 662 L 920 664 L 922 664 L 925 666 L 927 666 L 928 667 L 931 667 L 932 668 L 936 668 L 937 669 L 961 669 L 962 668 L 966 668 L 972 665 L 974 665 L 980 662 L 982 660 L 983 660 L 993 650 L 992 649 L 990 649 L 982 657 L 981 657 L 979 659 L 976 660 L 972 663 L 970 663 L 969 664 L 967 664 L 963 666 L 958 666 L 957 667 L 943 667 L 942 666 L 938 666 L 937 665 L 932 664 L 926 661 L 921 657 L 920 657 L 913 650 L 913 649 L 910 646 L 910 645 L 908 643 L 907 640 L 904 636 L 904 634 L 903 633 L 903 631 L 901 627 L 901 624 L 900 623 L 900 602 L 901 601 L 901 598 L 902 597 L 903 592 L 909 580 L 913 576 L 913 575 L 920 568 L 921 568 L 926 564 L 934 560 L 936 560 L 937 559 L 940 559 L 941 558 L 960 558 L 961 559 L 968 560 L 973 563 L 975 563 L 977 565 L 981 567 L 991 577 L 993 575 L 992 573 L 987 568 L 986 568 L 979 562 L 973 559 L 971 559 L 970 558 L 968 558 L 964 556 L 961 556 L 960 555 L 939 555 L 938 556 L 933 556 L 929 558 Z
    M 460 556 L 459 557 L 459 559 L 497 559 L 498 560 L 498 668 L 511 668 L 511 560 L 512 559 L 549 559 L 550 557 L 549 556 Z
    M 1017 556 L 1017 559 L 1054 559 L 1055 560 L 1055 668 L 1068 668 L 1068 560 L 1069 559 L 1106 559 L 1106 556 Z
    M 802 573 L 814 597 L 816 599 L 830 628 L 832 630 L 831 632 L 783 632 L 782 631 L 808 605 L 804 597 L 803 597 L 795 605 L 795 606 L 780 621 L 779 620 L 779 618 L 797 583 L 797 581 L 799 579 Z
    M 615 482 L 611 484 L 608 487 L 606 491 L 606 499 L 608 503 L 611 506 L 615 508 L 624 508 L 626 507 L 630 503 L 632 499 L 632 491 L 630 487 L 627 484 L 623 482 Z
    M 720 750 L 717 750 L 716 752 L 713 750 L 707 750 L 703 753 L 701 757 L 701 762 L 702 763 L 702 765 L 706 769 L 714 769 L 716 767 L 717 768 L 717 772 L 716 774 L 713 776 L 709 776 L 707 775 L 706 773 L 703 772 L 702 774 L 706 778 L 708 778 L 709 779 L 713 779 L 714 778 L 716 778 L 720 774 Z
    M 563 743 L 561 743 L 560 744 L 560 750 L 561 751 L 560 752 L 556 750 L 550 750 L 546 753 L 545 755 L 545 757 L 544 758 L 544 761 L 545 762 L 545 764 L 546 766 L 549 769 L 552 769 L 554 770 L 555 769 L 557 769 L 559 767 L 561 768 L 560 769 L 563 769 Z
    M 673 751 L 670 754 L 670 756 L 669 757 L 669 763 L 670 765 L 674 769 L 676 769 L 677 770 L 682 769 L 684 767 L 685 769 L 688 769 L 688 750 L 686 750 L 684 752 L 681 750 L 675 750 Z
    M 405 751 L 403 753 L 402 755 L 402 758 L 401 759 L 401 761 L 402 762 L 402 764 L 403 766 L 406 769 L 414 769 L 416 767 L 418 768 L 417 769 L 420 769 L 420 750 L 418 750 L 416 752 L 413 750 L 407 750 Z
    M 520 750 L 516 752 L 516 753 L 514 755 L 514 757 L 513 758 L 513 762 L 515 766 L 517 768 L 519 769 L 521 769 L 522 770 L 524 769 L 527 769 L 529 767 L 530 767 L 530 766 L 532 764 L 532 756 L 531 754 L 528 751 L 526 750 Z
    M 470 750 L 470 769 L 473 769 L 473 756 L 476 753 L 481 753 L 483 755 L 483 768 L 484 769 L 487 769 L 487 755 L 489 753 L 495 753 L 497 755 L 497 769 L 500 769 L 500 755 L 497 751 L 495 750 L 490 750 L 486 753 L 485 753 L 482 750 L 476 750 L 474 752 L 472 750 Z
    M 740 750 L 738 751 L 734 755 L 734 757 L 733 758 L 733 762 L 735 766 L 737 768 L 739 769 L 741 769 L 742 770 L 744 770 L 745 769 L 747 769 L 751 765 L 751 764 L 749 763 L 745 767 L 741 767 L 738 765 L 737 762 L 738 761 L 751 761 L 752 760 L 752 757 L 750 753 L 746 750 Z
    M 583 750 L 581 751 L 578 754 L 577 756 L 577 763 L 580 768 L 582 769 L 584 769 L 585 770 L 587 770 L 588 769 L 590 769 L 592 768 L 594 764 L 592 763 L 588 767 L 584 767 L 581 765 L 580 762 L 581 761 L 594 761 L 595 760 L 595 757 L 594 756 L 594 754 L 591 751 L 589 750 Z
    M 678 752 L 679 753 L 682 753 L 685 757 L 685 762 L 684 764 L 680 767 L 677 767 L 675 766 L 672 762 L 672 757 L 676 753 Z
    M 708 753 L 714 753 L 717 757 L 717 763 L 714 766 L 712 767 L 709 767 L 707 766 L 704 762 L 704 758 L 705 756 Z
    M 408 753 L 414 753 L 417 756 L 417 763 L 413 767 L 409 767 L 407 766 L 404 761 L 404 758 L 405 756 Z
    M 520 753 L 526 753 L 529 756 L 529 763 L 526 766 L 524 767 L 521 767 L 519 766 L 516 761 L 517 756 Z
    M 551 753 L 557 753 L 560 756 L 560 763 L 556 767 L 552 767 L 548 763 L 548 761 L 547 759 L 548 758 L 548 756 Z
    M 765 750 L 765 769 L 768 769 L 768 756 L 771 753 L 776 753 L 778 755 L 779 757 L 779 769 L 781 769 L 782 768 L 782 757 L 781 756 L 781 754 L 780 752 L 779 752 L 777 750 L 771 750 L 769 752 L 767 750 Z
    M 841 750 L 839 750 L 837 754 L 836 759 L 833 765 L 830 760 L 830 758 L 829 757 L 829 755 L 827 751 L 826 750 L 824 750 L 824 752 L 826 755 L 827 760 L 831 768 L 831 770 L 828 776 L 828 778 L 831 778 L 831 776 L 833 773 L 833 771 L 835 768 L 835 766 L 839 758 L 839 756 L 840 755 Z
    M 801 750 L 799 751 L 796 754 L 795 756 L 795 764 L 798 768 L 800 769 L 802 769 L 803 770 L 805 770 L 806 769 L 808 769 L 810 768 L 810 767 L 812 765 L 812 763 L 810 763 L 807 766 L 805 767 L 802 767 L 800 766 L 798 763 L 798 756 L 801 753 L 803 753 L 804 752 L 805 753 L 807 753 L 809 755 L 809 756 L 812 756 L 811 753 L 807 750 Z
    M 629 750 L 626 752 L 625 754 L 625 757 L 626 759 L 630 761 L 633 761 L 636 763 L 636 765 L 634 767 L 630 767 L 627 764 L 625 764 L 625 766 L 628 769 L 630 769 L 631 770 L 633 769 L 636 769 L 639 765 L 639 763 L 638 761 L 635 759 L 630 758 L 628 756 L 628 754 L 632 752 L 634 753 L 636 755 L 636 756 L 638 756 L 638 753 L 635 750 Z
    M 609 743 L 608 744 L 608 769 L 611 769 L 611 744 Z
    M 435 750 L 435 769 L 437 769 L 438 768 L 438 752 L 437 750 Z
    M 737 756 L 740 753 L 742 752 L 744 753 L 746 753 L 748 755 L 748 757 L 747 758 L 738 758 Z
    M 580 756 L 583 753 L 589 753 L 592 757 L 591 758 L 581 758 Z
    M 435 743 L 434 745 L 435 747 L 437 747 L 438 746 L 438 744 L 437 743 Z
    M 778 621 L 779 620 L 780 621 L 779 622 Z" fill="#000000" fill-rule="evenodd"/>
</svg>
